<?xml version="1.0" encoding="UTF-8" standalone="no"?>
<!-- Created with Inkscape (http://www.inkscape.org/) -->

<svg
   xmlns:dc="http://purl.org/dc/elements/1.1/"
   xmlns:cc="http://creativecommons.org/ns#"
   xmlns:rdf="http://www.w3.org/1999/02/22-rdf-syntax-ns#"
   xmlns:svg="http://www.w3.org/2000/svg"
   xmlns="http://www.w3.org/2000/svg"
   xmlns:sodipodi="http://sodipodi.sourceforge.net/DTD/sodipodi-0.dtd"
   xmlns:inkscape="http://www.inkscape.org/namespaces/inkscape"
   width="210mm"
   height="297mm"
   viewBox="0 0 210 297"
   version="1.1"
   id="svg8"
   inkscape:version="0.92.4 (5da689c313, 2019-01-14)"
   sodipodi:docname="shieldBackgroundwithcircuitincornercolouredwithduckrobot2withlock.svg">
  <defs
     id="defs2" />
  <sodipodi:namedview
     id="base"
     pagecolor="#ffffff"
     bordercolor="#666666"
     borderopacity="1.0"
     inkscape:pageopacity="0.0"
     inkscape:pageshadow="2"
     inkscape:zoom="2.8284271"
     inkscape:cx="514.66028"
     inkscape:cy="751.1153"
     inkscape:document-units="mm"
     inkscape:current-layer="layer1"
     showgrid="false"
     showborder="false"
     inkscape:showpageshadow="false"
     inkscape:object-nodes="false"
     inkscape:window-width="2736"
     inkscape:window-height="1699"
     inkscape:window-x="-13"
     inkscape:window-y="-13"
     inkscape:window-maximized="1"
     inkscape:snap-intersection-paths="true"
     showguides="true"
     inkscape:guide-bbox="true"
     inkscape:snap-others="false"
     inkscape:snap-nodes="false"
     inkscape:snap-smooth-nodes="false"
     inkscape:object-paths="false"
     inkscape:snap-midpoints="false">
    <sodipodi:guide
       position="233.62708,289.32187"
       orientation="1,0"
       id="guide1046"
       inkscape:locked="false" />
    <sodipodi:guide
       position="386.29166,197.18073"
       orientation="0,1"
       id="guide1102"
       inkscape:locked="false" />
  </sodipodi:namedview>
  <metadata
     id="metadata5">
    <rdf:RDF>
      <cc:Work
         rdf:about="">
        <dc:format>image/svg+xml</dc:format>
        <dc:type
           rdf:resource="http://purl.org/dc/dcmitype/StillImage" />
        <dc:title />
      </cc:Work>
    </rdf:RDF>
  </metadata>
  <g
     inkscape:label="Layer 1"
     inkscape:groupmode="layer"
     id="layer1">
    <path
       style="color:#000000;font-style:normal;font-variant:normal;font-weight:normal;font-stretch:normal;font-size:medium;line-height:normal;font-family:sans-serif;font-variant-ligatures:normal;font-variant-position:normal;font-variant-caps:normal;font-variant-numeric:normal;font-variant-alternates:normal;font-feature-settings:normal;text-indent:0;text-align:start;text-decoration:none;text-decoration-line:none;text-decoration-style:solid;text-decoration-color:#000000;letter-spacing:normal;word-spacing:normal;text-transform:none;writing-mode:lr-tb;direction:ltr;text-orientation:mixed;dominant-baseline:auto;baseline-shift:baseline;text-anchor:start;white-space:normal;shape-padding:0;clip-rule:nonzero;display:inline;overflow:visible;visibility:visible;opacity:1;isolation:auto;mix-blend-mode:normal;color-interpolation:sRGB;color-interpolation-filters:linearRGB;solid-color:#000000;solid-opacity:1;vector-effect:none;fill:#0060a8;fill-opacity:1;fill-rule:nonzero;stroke:none;stroke-width:0.6047132;stroke-linecap:butt;stroke-linejoin:miter;stroke-miterlimit:4;stroke-dasharray:none;stroke-dashoffset:0;stroke-opacity:0.94117647;color-rendering:auto;image-rendering:auto;shape-rendering:auto;text-rendering:auto;enable-background:accumulate"
       d="m 128.17354,106.45657 a 0.75646945,0.8211205 0 0 0 -0.75653,0.82147 0.75646945,0.8211205 0 0 0 0.004,0.0823 0.75646945,0.8211205 0 0 0 0.0597,0.24661 l -2.8726,4.23292 a 0.75646945,0.8211205 0 0 0 -0.25292,-0.0484 0.75646945,0.8211205 0 0 0 -0.63258,0.37161 l -4.58612,0.10699 0.0151,0.71957 4.49119,-0.10307 a 0.75646945,0.8211205 0 0 0 0.40758,0.47689 l -0.3216,3.82246 0.71298,0.062 0.33277,-3.95197 a 0.75646945,0.8211205 0 0 0 0.33723,-0.68352 0.75646945,0.8211205 0 0 0 -0.0943,-0.39413 l 2.84524,-4.19294 a 0.75646945,0.8211205 0 0 0 0.0659,0.0281 0.75646945,0.8211205 0 0 0 0.0111,0.004 0.75646945,0.8211205 0 0 0 0.0553,0.0169 0.75646945,0.8211205 0 0 0 0.0229,0.005 0.75646945,0.8211205 0 0 0 0.0514,0.01 0.75646945,0.8211205 0 0 0 0.0245,0.003 0.75646945,0.8211205 0 0 0 0.0569,0.004 0.75646945,0.8211205 0 0 0 0.005,5.7e-4 0.75646945,0.8211205 0 0 0 0.0178,5.6e-4 0.75646945,0.8211205 0 0 0 0.1446,-0.0151 l 5.44929,7.72151 h -5.66256 v 0.30572 8.74286 h 5.99756 a 3.3106138,3.5184031 0 0 0 -0.0547,0.6199 3.3106138,3.5184031 0 0 0 3.31032,3.51842 3.3106138,3.5184031 0 0 0 3.31089,-3.51842 3.3106138,3.5184031 0 0 0 -0.053,-0.6199 h 6.57264 v -9.04858 h -1.59291 v -2.57422 h 9.08176 v -6.4496 h -10.24029 v 0.2179 6.2317 h 0.23506 v 2.57422 h -9.92653 l -5.8429,-8.2761 -0.0118,0.009 a 0.75646945,0.8211205 0 0 0 0.003,-0.0119 0.75646945,0.8211205 0 0 0 0.015,-0.0574 0.75646945,0.8211205 0 0 0 0.004,-0.0231 0.75646945,0.8211205 0 0 0 0.008,-0.0484 0.75646945,0.8211205 0 0 0 0.004,-0.0389 0.75646945,0.8211205 0 0 0 0.003,-0.049 0.75646945,0.8211205 0 0 0 0.001,-0.0309 0.75646945,0.8211205 0 0 0 -0.75654,-0.82147 z m 16.58514,0.7601 h 9.59655 v 5.57971 h -9.59655 z m 6.3281,0.8271 a 1.6052329,1.9485234 0 0 0 -1.60519,1.94867 1.6052329,1.9485234 0 0 0 1.60519,1.94868 1.6052329,1.9485234 0 0 0 1.60519,-1.94868 1.6052329,1.9485234 0 0 0 -1.60519,-1.94867 z m -3.53757,0.8395 a 1.3971471,1.259046 0 0 0 -1.39694,1.25894 1.3971471,1.259046 0 0 0 1.39694,1.25896 1.3971471,1.259046 0 0 0 1.39749,-1.25896 1.3971471,1.259046 0 0 0 -1.39749,-1.25894 z m -18.84469,7.53231 h 5.49394 l 1.70737,2.41938 a 0.75646945,0.8211205 0 0 0 -0.0659,0.33388 0.75646945,0.8211205 0 0 0 0.75654,0.82091 0.75646945,0.8211205 0 0 0 0.75597,-0.82091 0.75646945,0.8211205 0 0 0 -0.75597,-0.82092 0.75646945,0.8211205 0 0 0 -0.0547,0.002 l -1.36511,-1.93404 h 11.41223 v 7.82848 h -6.131 a 3.3106138,3.5184031 0 0 0 -3.09985,-2.28875 3.3106138,3.5184031 0 0 0 -3.09704,2.28875 h -5.55648 z"
       id="path6546-7"
       inkscape:connector-curvature="0" />
    <path
       style="color:#000000;font-style:normal;font-variant:normal;font-weight:normal;font-stretch:normal;font-size:medium;line-height:normal;font-family:sans-serif;font-variant-ligatures:normal;font-variant-position:normal;font-variant-caps:normal;font-variant-numeric:normal;font-variant-alternates:normal;font-feature-settings:normal;text-indent:0;text-align:start;text-decoration:none;text-decoration-line:none;text-decoration-style:solid;text-decoration-color:#000000;letter-spacing:normal;word-spacing:normal;text-transform:none;writing-mode:lr-tb;direction:ltr;text-orientation:mixed;dominant-baseline:auto;baseline-shift:baseline;text-anchor:start;white-space:normal;shape-padding:0;clip-rule:nonzero;display:inline;overflow:visible;visibility:visible;opacity:1;isolation:auto;mix-blend-mode:normal;color-interpolation:sRGB;color-interpolation-filters:linearRGB;solid-color:#000000;solid-opacity:1;vector-effect:none;fill:#0060a8;fill-opacity:1;fill-rule:nonzero;stroke:none;stroke-width:0.63335359;stroke-linecap:butt;stroke-linejoin:miter;stroke-miterlimit:4;stroke-dasharray:none;stroke-dashoffset:0;stroke-opacity:1;color-rendering:auto;image-rendering:auto;shape-rendering:auto;text-rendering:auto;enable-background:accumulate"
       d="m 118.00417,33.204697 -0.27802,0.12919 -0.83354,0.38602 v -5.2e-4 c -12.96973,6.005 -23.585393,12.72318 -46.710333,12.57391 l -2.52387,-0.0165 -0.13488,2.52078 c -0.6812,12.66771 0.16698,25.02865 2.48512,36.75072 l -8.94467,2.038636 v 16.241397 l 15.23369,3.47163 c 8.14109,20.92049 21.7007,38.616 40.268343,50.63411 h 5.2e-4 l 1.43764,0.92966 1.43763,-0.92966 h 5.2e-4 c 18.53994,-12.00017 32.08656,-29.66093 40.23166,-50.54058 l 15.64452,-3.56516 V 87.586933 l -9.30279,-2.119756 c 2.30606,-11.69795 3.14873,-24.0311 2.4691,-36.6696 v -5.2e-4 l -0.13488,-2.52025 -2.52387,0.0165 c -23.12495,0.14926 -33.74061,-6.56892 -46.71033,-12.57392 v 5.2e-4 z m 0,1.45779 0.55552,0.25786 c 12.87821,5.96263 23.88912,12.84683 47.27463,12.69587 l 1.26194,-0.008 0.0677,1.26039 c 0.67352,12.52406 -0.1596,24.7327 -2.43603,36.30527 l -13.94592,-3.17807 h -32.77784 v -45.87471 c -12.78688,5.92034 -24.185293,12.97102 -47.838943,12.81834 -0.66895,12.43905 0.15951,24.55171 2.41897,36.0226 l -1.28777,0.29352 c -2.28855,-11.59675 -3.12715,-23.83348 -2.45205,-36.38692 l 0.0677,-1.26039 1.26194,0.008 c 23.3855,0.15092 34.396423,-6.73327 47.274623,-12.6959 z m -32.284853,48.39136 h 64.943833 l 23.59702,5.377446 V 102.50176 L 150.66315,97.124293 H 85.719317 l -23.59701,5.377467 V 88.431293 Z m -1.53737,1.71876 c -0.0549,0 -0.11143,0.007 -0.1695,0.0196 -0.33717,0.0759 -0.62866,0.36186 -0.7643,0.70641 l -18.62367,4.194576 c -0.11811,-0.32878 -0.42911,-0.51673 -0.79375,-0.4346 -0.46461,0.10464 -0.84594,0.60737 -0.84594,1.11414 0,0.50676 0.38133,0.8369 0.84594,0.73225 0.36411,-0.082 0.67473,-0.40937 0.79324,-0.79064 l 18.57302,-4.183206 c 0.0958,0.37348 0.42476,0.59546 0.81546,0.50746 0.46461,-0.10465 0.84646,-0.60738 0.84646,-1.11414 0,-0.44342 -0.29258,-0.75189 -0.67696,-0.75189 z m 68.247513,0 c -0.38439,0 -0.67697,0.30847 -0.67697,0.75189 0,0.50676 0.38185,1.00949 0.84647,1.11414 0.39069,0.088 0.71965,-0.13398 0.81545,-0.50746 l 18.57303,4.183206 c 0.11851,0.38127 0.42912,0.70864 0.79323,0.79064 0.46461,0.10465 0.84594,-0.22549 0.84594,-0.73225 0,-0.50677 -0.38133,-1.0095 -0.84594,-1.11414 -0.36464,-0.0821 -0.67564,0.10582 -0.79375,0.4346 l -18.62367,-4.194576 c -0.13564,-0.34456 -0.42713,-0.63048 -0.76429,-0.70642 -0.0581,-0.0131 -0.11459,-0.0196 -0.1695,-0.0196 z m -68.247513,4.780576 c -0.0549,-1e-5 -0.11143,0.006 -0.1695,0.0191 -0.28187,0.0635 -0.53216,0.27415 -0.68627,0.5426 l -7.45794,-0.45423 v -0.004 l -11.24944,2.53369 c -0.12312,-0.31716 -0.43037,-0.49604 -0.78807,-0.41547 -0.46461,0.10464 -0.84594,0.60686 -0.84594,1.11362 0,0.50677 0.38133,0.83742 0.84594,0.73277 0.35734,-0.0805 0.66418,-0.39683 0.78755,-0.76894 l 11.16469,-2.51458 7.39283,0.45062 c 0.0487,0.44674 0.4048,0.72721 0.83665,0.62994 0.46461,-0.10465 0.84646,-0.60686 0.84646,-1.11363 0,-0.44342 -0.29258,-0.75178 -0.67696,-0.75189 z m 68.247513,0 c -0.38439,1.1e-4 -0.67697,0.30847 -0.67697,0.7519 0,0.50676 0.38185,1.00897 0.84647,1.11362 0.43185,0.0973 0.78804,-0.1832 0.83664,-0.62993 l 7.39283,-0.45062 11.16469,2.51457 c 0.12337,0.37211 0.43021,0.68846 0.78755,0.76895 0.46461,0.10464 0.84594,-0.22601 0.84594,-0.73277 0,-0.50677 -0.38133,-1.00899 -0.84594,-1.11363 -0.35771,-0.0806 -0.66494,0.0983 -0.78807,0.41548 l -11.24944,-2.5337 v 0.004 l -7.45794,0.45424 c -0.15411,-0.26845 -0.4044,-0.47911 -0.68626,-0.5426 -0.0581,-0.0131 -0.11459,-0.0191 -0.1695,-0.0191 z m -77.291413,2.03399 c -0.0549,-2e-5 -0.11194,0.007 -0.17001,0.0196 -0.35956,0.081 -0.66683,0.40107 -0.78859,0.77618 l -6.9081,1.55597 c -0.1229,-0.31767 -0.43005,-0.49715 -0.78807,-0.41651 -0.46461,0.10465 -0.84646,0.60738 -0.84646,1.11415 0,0.50676 0.38185,0.8369 0.84646,0.73225 0.35763,-0.0805 0.66439,-0.39695 0.78755,-0.76946 l 1.51154,-0.34055 v 4.0721 l -4.16409,0.93794 c -0.12326,-0.31681 -0.43005,-0.49549 -0.78755,-0.41497 -0.46461,0.10464 -0.84594,0.60739 -0.84594,1.11415 0,0.506767 0.38133,0.836897 0.84594,0.732257 0.3575,-0.0805 0.66429,-0.39714 0.78755,-0.769457 l 4.76767,-1.07385 v -0.28887 l 0.004,-10e-4 v -4.44521 l 4.79195,-1.079 c 0.12415,0.31449 0.4299,0.49103 0.786,0.41083 0.46462,-0.10465 0.84646,-0.60739 0.84646,-1.11415 0,-0.44342 -0.29215,-0.75228 -0.67644,-0.75241 z m 86.335303,0 c -0.38429,1.2e-4 -0.67644,0.30898 -0.67644,0.75241 0,0.50676 0.38133,1.00949 0.84594,1.11414 0.3561,0.0802 0.66185,-0.0963 0.786,-0.41083 l 4.79247,1.07901 v 4.4452 l 0.004,10e-4 v 0.28887 l 4.76767,1.07386 c 0.12326,0.372317 0.43005,0.688957 0.78755,0.769457 0.46461,0.10464 0.84594,-0.22549 0.84594,-0.732257 0,-0.50677 -0.38133,-1.00951 -0.84594,-1.11416 -0.3575,-0.0805 -0.66429,0.0982 -0.78755,0.41497 l -4.16409,-0.93793 v -4.0721 l 1.51154,0.34054 c 0.12316,0.37251 0.42993,0.68891 0.78755,0.76946 0.46462,0.10465 0.84646,-0.22549 0.84646,-0.73225 0,-0.50677 -0.38184,-1.0095 -0.84646,-1.11415 -0.35801,-0.0806 -0.66517,0.0988 -0.78807,0.41652 l -6.9081,-1.55598 c -0.12175,-0.3751 -0.42903,-0.69519 -0.78858,-0.77618 h -5.2e-4 c -0.0581,-0.0131 -0.1146,-0.0197 -0.1695,-0.0196 z m -77.291403,1.34513 c -0.0549,-1e-5 -0.11143,0.006 -0.1695,0.0191 -0.40219,0.0906 -0.74116,0.47953 -0.82528,0.91106 v -0.13488 l -10.39729,2.34146 c -0.1229,-0.31767 -0.43005,-0.49663 -0.78807,-0.41599 -0.46462,0.10464 -0.84594,0.60738 -0.84594,1.11414 0,0.50677 0.38132,0.83691 0.84594,0.73226 0.35784,-0.0806 0.66504,-0.39771 0.78807,-0.7705 l 10.39729,-2.34144 v -0.12867 c 0.0841,0.39363 0.42309,0.62957 0.82528,0.53898 0.46461,-0.10465 0.84646,-0.60686 0.84646,-1.11362 0,-0.44342 -0.29258,-0.75179 -0.67696,-0.7519 z m 68.247513,0 c -0.38439,1.1e-4 -0.67697,0.30848 -0.67697,0.7519 0,0.50676 0.38185,1.00897 0.84647,1.11362 0.40218,0.0906 0.74117,-0.14535 0.82527,-0.53898 v 0.12867 l 10.3973,2.34146 c 0.12302,0.37279 0.43023,0.6899 0.78806,0.7705 0.46462,0.10465 0.84595,-0.22549 0.84595,-0.73226 0,-0.50676 -0.38133,-1.0095 -0.84595,-1.11414 -0.35802,-0.0806 -0.66517,0.0983 -0.78806,0.41599 l -10.3973,-2.34146 v 0.13488 c -0.0841,-0.43152 -0.42309,-0.82048 -0.82527,-0.91106 -0.0581,-0.0131 -0.11459,-0.0191 -0.1695,-0.0191 z m -34.42529,5.25033 h 32.54013 l 10.19679,2.323897 c -7.67164,23.44015 -21.87,43.27538 -42.0181,56.31646 l -0.71882,0.4656 -0.71882,-0.4656 h -5.2e-4 C 97.159447,143.79651 82.970127,123.99139 75.292567,100.5856 l 1.29087,-0.29404 c 7.60101,23.09442 21.60829,42.59709 41.420733,55.4209 z"
       id="path5867"
       inkscape:connector-curvature="0" />
    <path
       style="color:#000000;font-style:normal;font-variant:normal;font-weight:normal;font-stretch:normal;font-size:medium;line-height:normal;font-family:sans-serif;font-variant-ligatures:normal;font-variant-position:normal;font-variant-caps:normal;font-variant-numeric:normal;font-variant-alternates:normal;font-feature-settings:normal;text-indent:0;text-align:start;text-decoration:none;text-decoration-line:none;text-decoration-style:solid;text-decoration-color:#000000;letter-spacing:normal;word-spacing:normal;text-transform:none;writing-mode:lr-tb;direction:ltr;text-orientation:mixed;dominant-baseline:auto;baseline-shift:baseline;text-anchor:start;white-space:normal;shape-padding:0;clip-rule:nonzero;display:inline;overflow:visible;visibility:visible;opacity:1;isolation:auto;mix-blend-mode:normal;color-interpolation:sRGB;color-interpolation-filters:linearRGB;solid-color:#000000;solid-opacity:1;vector-effect:none;fill:#ffffff;fill-opacity:0.94117647;fill-rule:nonzero;stroke:none;stroke-width:1.32291663;stroke-linecap:butt;stroke-linejoin:miter;stroke-miterlimit:4;stroke-dasharray:none;stroke-dashoffset:0;stroke-opacity:1;color-rendering:auto;image-rendering:auto;shape-rendering:auto;text-rendering:auto;enable-background:accumulate"
       d="m 95.906876,52.30895 c -0.822077,0.0029 -1.668476,0.119578 -2.539379,0.407728 l -0.03927,0.01395 -0.03721,0.01757 c -2.517521,1.195088 -4.004881,3.264349 -4.634859,5.812565 l -0.0098,0.04289 -0.0057,0.04289 c -0.284546,2.609069 0.701897,4.666728 2.308386,6.265767 0.0394,0.128995 0.02087,0.190373 0.02532,0.273367 -0.194331,-0.05148 -0.384784,-0.106992 -0.576191,-0.175183 -0.308473,-0.163541 -0.581891,-0.333822 -0.823722,-0.508495 -0.20138,-0.145452 -0.38113,-0.294494 -0.546219,-0.445968 -0.452819,-0.484534 -0.9437,-1.164929 -1.47433,-2.139921 -0.0911,-0.198681 -0.181803,-0.397431 -0.268719,-0.597895 l -0.41031,-0.947229 -0.689371,0.769461 c -0.0927,0.10346 -0.18199,0.207846 -0.26768,0.313158 -0.0638,0.07797 -0.12309,0.155993 -0.18139,0.234096 -0.0315,0.04169 -0.0625,0.08363 -0.093,0.125573 -0.0244,0.03431 -0.049,0.06851 -0.0724,0.102836 -0.46042,0.655106 -0.79486,1.338477 -1.01131,2.033468 -1.74541,-1.029202 -3.12649,-2.24973 -3.94239,-3.801318 l -0.49248,-0.933276 -0.62684,0.849559 c -1.96958,2.670672 -2.08054,6.695802 -0.7617,10.328052 1.31884,3.632251 4.13542,6.934473 8.246008,7.997963 l 0.08217,0.0217 14.56449,-0.04134 0.078,-0.01912 c 4.04981,-1.022067 5.96225,-3.363566 6.48642,-5.732465 0.52255,-2.361573 -0.20063,-4.647324 -1.19321,-5.934006 -1.18828,-1.705171 -2.75805,-2.514624 -4.3403,-2.999817 -0.0735,-0.06093 -0.0757,-0.09368 -0.0661,-0.162264 0.15049,-0.271526 0.30724,-0.555214 0.43356,-0.865063 1.98147,0.09644 3.29764,-0.461007 4.29483,-1.245917 5.2e-4,-3.89e-4 -5.2e-4,-0.0017 0,-0.0021 0.26741,-0.20016 0.46884,-0.490202 0.37104,-0.841809 -0.049,-0.176144 -0.19645,-0.330674 -0.35915,-0.394809 -0.14616,-0.05762 -0.29596,-0.05865 -0.44545,-0.03307 -0.21613,0.01661 -0.38547,-0.08288 -0.57619,-0.08371 0.63323,-0.229767 1.30966,-0.588174 2.0469,-1.330153 l 0.0274,-0.02739 0.0217,-0.03152 c 0.0643,-0.09565 0.11992,-0.191403 0.1602,-0.30851 0.0403,-0.117107 0.0712,-0.27586 0.002,-0.447 -0.0696,-0.171141 -0.23477,-0.286174 -0.37673,-0.33228 -0.14196,-0.0461 -0.28084,-0.05285 -0.44131,-0.04651 h -0.0295 l -0.0294,0.0057 c -1.7614,0.341392 -3.15015,0.01731 -4.45296,-0.589627 l -0.1478,-0.06873 c -0.007,-0.01824 -0.0131,-0.03655 -0.0202,-0.05478 l -0.0155,-0.04083 -0.0217,-0.03927 c -1.54439,-2.815201 -2.82083,-3.127254 -3.853507,-3.89227 l -0.103354,-0.07648 -0.122989,-0.03307 c -0.86664,-0.225703 -1.766097,-0.396841 -2.697512,-0.429432 -0.116425,-0.0041 -0.233442,-0.0061 -0.350882,-0.0057 z m 0.313676,1.323951 h 5.16e-4 c 0.769895,0.02819 1.535462,0.177205 2.316139,0.376722 1.184095,0.829175 1.962873,0.899644 3.312463,3.339848 0.56753,1.493158 0.62676,2.902075 0.10955,4.329967 l -0.0196,0.05478 -0.0119,0.05478 c -0.0199,0.112829 -0.0649,0.243779 -0.11989,0.381373 l -0.1788,0.34158 0.0243,0.0031 c -0.0934,0.190604 -0.19907,0.391436 -0.31522,0.6041 l -0.0682,0.125055 -0.0119,0.142629 c -0.0301,0.406657 0.12905,0.981072 0.56999,1.345652 l 0.10593,0.08785 0.13436,0.03721 c 1.50903,0.430496 2.80714,1.079656 3.85765,2.595708 l 0.01,0.0155 0.0119,0.01344 c 0.69418,0.894006 1.37648,2.937653 0.95291,4.8519 -0.4212,1.903558 -1.81318,3.776379 -5.46478,4.714957 l -14.17588,0.04082 c -3.577568,-0.949322 -6.084578,-3.858414 -7.279148,-7.148401 -1.06905,-2.9443 -0.97173,-6.079736 0.17364,-8.27133 1.02779,1.484545 2.38041,2.746943 4.12119,3.717604 -0.0299,0.348293 -0.0332,0.696029 -0.01,1.041797 0.12169,1.800323 0.92288,3.524303 2.13682,4.99246 2.427888,2.936314 6.533234,4.9188 10.644319,4.388361 l 0.03514,-0.0036 0.03307,-0.0078 c 2.214234,-0.525822 3.656809,-1.34063 4.486549,-2.369365 0.82975,-1.028737 0.96626,-2.268204 0.63303,-3.327963 -0.33324,-1.059757 -1.08023,-1.96945 -1.99057,-2.613276 -0.8915,-0.6305 -1.956958,-1.016691 -3.024107,-0.932244 -2.085377,-0.135594 -3.690607,-0.420682 -4.940785,-0.794782 0.135036,-0.480965 0.03675,-0.936934 -0.07596,-1.286745 l -0.05271,-0.163814 -0.125058,-0.117306 c -1.511686,-1.410187 -2.301986,-3.044119 -2.062406,-5.361429 0.559306,-2.214452 1.729648,-3.838184 3.867465,-4.865336 0.818838,-0.264417 1.607532,-0.362363 2.390034,-0.33383 z m 2.326474,2.909901 c -0.904277,0 -1.656231,0.727009 -1.656231,1.625224 0,0.898213 0.751954,1.624706 1.656231,1.624706 0.904274,0 1.654164,-0.726493 1.654164,-1.624706 0,-0.898215 -0.74989,-1.625224 -1.654164,-1.625224 z m 0,0.793231 c 0.485277,0 0.861446,0.372965 0.861446,0.831993 0,0.459023 -0.376169,0.83199 -0.861446,0.83199 -0.485278,0 -0.861447,-0.372967 -0.861447,-0.83199 0,-0.459028 0.376169,-0.831993 0.861447,-0.831993 z m 4.909774,0.503846 h 5.2e-4 c 1.19895,0.477025 2.53379,0.728242 4.09949,0.484209 -1.14986,1.034214 -2.03924,1.08617 -3.1874,1.486215 l -0.75706,0.263033 c 0.033,-0.584656 -0.007,-1.171004 -0.11524,-1.75545 -0.0113,-0.156488 -0.0223,-0.312327 -0.0403,-0.478007 z m 0.14366,2.39417 0.74363,0.314708 c 0.81559,0.34603 1.52566,0.369539 2.2965,0.337966 -0.79291,0.584012 -1.82627,0.934355 -3.33933,0.904854 0.15927,-0.515361 0.25787,-1.035672 0.2992,-1.557528 z m -16.977255,2.689759 c 0.37788,0.741421 0.849214,1.512914 1.652611,2.22622 0.116144,0.128823 0.232275,0.248854 0.347784,0.346231 0.581912,0.490575 1.167128,0.777023 1.721858,0.959633 1.576941,0.711531 3.748321,1.224103 6.828523,1.421101 l 0.05478,0.0036 0.05271,-0.0036 c 0.675659,-0.06622 1.497039,0.195099 2.198833,0.691431 0.701786,0.496334 1.265436,1.214337 1.490346,1.929598 0.22491,0.715259 0.16845,1.396791 -0.39842,2.099614 -0.56234,0.697196 -1.716676,1.416759 -3.724324,1.900658 -3.566641,0.447842 -7.288958,-1.335868 -9.425781,-3.920175 -1.071333,-1.295686 -1.737063,-2.773725 -1.836063,-4.2385 -0.0781,-1.154973 0.31477,-2.298375 1.037146,-3.415811 z"
       id="path6525"
       inkscape:connector-curvature="0" />
    <path
       style="color:#000000;font-style:normal;font-variant:normal;font-weight:normal;font-stretch:normal;font-size:medium;line-height:normal;font-family:sans-serif;font-variant-ligatures:normal;font-variant-position:normal;font-variant-caps:normal;font-variant-numeric:normal;font-variant-alternates:normal;font-feature-settings:normal;text-indent:0;text-align:start;text-decoration:none;text-decoration-line:none;text-decoration-style:solid;text-decoration-color:#000000;letter-spacing:normal;word-spacing:normal;text-transform:none;writing-mode:lr-tb;direction:ltr;text-orientation:mixed;dominant-baseline:auto;baseline-shift:baseline;text-anchor:start;white-space:normal;shape-padding:0;clip-rule:nonzero;display:inline;overflow:visible;visibility:visible;opacity:1;isolation:auto;mix-blend-mode:normal;color-interpolation:sRGB;color-interpolation-filters:linearRGB;solid-color:#000000;solid-opacity:1;vector-effect:none;fill:#ffffff;fill-opacity:1;fill-rule:nonzero;stroke:none;stroke-width:0.50981528;stroke-linecap:butt;stroke-linejoin:miter;stroke-miterlimit:4;stroke-dasharray:none;stroke-dashoffset:0;stroke-opacity:1;color-rendering:auto;image-rendering:auto;shape-rendering:auto;text-rendering:auto;enable-background:accumulate"
       d="m 99.621434,102.33295 c -1.449376,-0.24506 -2.951173,0.46168 -3.650902,1.84109 -0.553231,1.09062 -0.470182,2.3374 0.109507,3.31808 l -5.107406,10.06767 0.159789,3.30546 3.053565,-1.28629 0.242938,-2.21998 1.747981,-1.11382 0.05767,-2.35698 1.76276,-1.1999 -0.03297,-2.10695 0.562261,-1.1085 0.881883,0.44722 0.420001,-0.82825 c 0.957629,-0.22373 1.813929,-0.85219 2.293279,-1.79717 0.86122,-1.69774 0.1822,-3.77503 -1.51555,-4.63622 -0.31833,-0.16148 -0.650349,-0.26885 -0.984812,-0.32546 z m -0.248236,0.89808 c 1.179332,0.15089 2.356602,1.45655 1.761912,2.60747 l -3.362633,-1.70603 c 0.36462,-0.74302 0.98297,-0.98046 1.600721,-0.90144 z m 7.620442,2.83953 c -0.18054,-0.0268 -0.36418,-0.0382 -0.54928,-0.0359 -1.93714,-0.32887 -4.07143,0.9998 -4.55939,3.24058 l -0.008,-10e-4 -1.11181,6.63841 -2.597033,-0.43003 -0.03512,0.21208 -0.0091,0.0551 -0.488202,2.9483 0.974269,0.16133 -0.08526,0.51492 -0.461389,-0.0764 -0.01434,0.0866 -0.0058,0.0352 -0.0015,0.009 -0.09573,0.57813 0.461389,0.0764 -0.07936,0.47924 -0.46139,-0.0764 -0.01436,0.0867 -0.0058,0.0352 -0.0015,0.009 -0.09573,0.57813 0.461389,0.0764 -0.07936,0.47924 -0.461389,-0.0764 -0.01444,0.0872 -0.0058,0.0352 -0.0015,0.009 -0.09573,0.57814 0.461389,0.0764 -0.07935,0.47922 -0.461389,-0.0764 -0.01444,0.0872 -0.0058,0.0352 -0.0015,0.009 -0.09582,0.57865 0.461389,0.0764 -0.07927,0.47872 -0.461389,-0.0764 -0.01444,0.0872 -0.0058,0.0352 -0.0015,0.009 -0.09582,0.57865 0.461389,0.0764 -0.07935,0.47923 -0.46139,-0.0764 -0.01434,0.0866 -0.0058,0.0352 -0.0015,0.009 -0.09573,0.57815 0.461389,0.0764 -0.08113,0.48994 -0.974269,-0.16133 -0.03503,0.21157 -0.0091,0.055 -0.488288,2.94882 13.807505,2.28635 0.53244,-3.21544 -0.97426,-0.16133 0.0811,-0.48994 0.46138,0.0764 0.11743,-0.70916 -0.46139,-0.0764 0.0794,-0.47924 0.46139,0.0764 0.11734,-0.70865 -0.46139,-0.0764 0.0794,-0.47923 0.46139,0.0764 0.11742,-0.70916 -0.46138,-0.0764 0.0793,-0.47873 0.46139,0.0764 0.11742,-0.70916 -0.46138,-0.0764 0.0794,-0.47923 0.46139,0.0764 0.11743,-0.70917 -0.46139,-0.0764 0.0794,-0.47923 0.46138,0.0764 0.11735,-0.70865 -0.46139,-0.0764 0.0852,-0.51442 0.97426,0.16133 0.53253,-3.21596 -2.76222,-0.45739 1.09554,-6.69505 -0.008,-0.001 c 0.26199,-2.29268 -1.35131,-4.25007 -3.30752,-4.54428 z m -0.34034,1.67586 5e-4,8e-5 c 0.43197,0.16357 0.78828,0.40771 1.04469,0.71355 0.39691,0.47339 0.557,1.09326 0.39268,1.79462 l -0.006,0.0279 0.008,10e-4 -1.1027,6.6593 -4.00159,-0.66261 1.09392,-6.60628 0.008,0.001 0.004,-0.0282 c 0.0706,-0.71688 0.42188,-1.25205 0.95019,-1.57224 0.43488,-0.26357 0.99064,-0.38073 1.60805,-0.32878 z m -9.584098,0.81357 c 0.06907,0.0481 0.139954,0.0944 0.213383,0.138 l -4.866632,9.59422 -0.225672,-0.1144 z"
       id="path949"
       inkscape:connector-curvature="0" />
  </g>
</svg>
